<svg aria-hidden="true" style="position: absolute; width: 0; height: 0; overflow: hidden;" version="1.1" xmlns="http://www.w3.org/2000/svg" xmlns:xlink="http://www.w3.org/1999/xlink">
<defs>
<symbol id="icon-open-menu" viewBox="0 0 32 32">
<path d="M6.4 11.733v-2.133h19.2v2.133h-19.2zM6.4 17.067h19.2v-2.133h-19.2v2.133zM6.4 22.4h19.2v-2.133h-19.2v2.133z"></path>
</symbol>
<symbol id="icon-close-menu" viewBox="0 0 32 32">
<path d="M23.733 10.304l-1.504-1.504-5.963 5.963-5.963-5.963-1.504 1.504 5.963 5.963-5.963 5.963 1.504 1.504 5.963-5.963 5.963 5.963 1.504-1.504-5.963-5.963 5.963-5.963z"></path>
</symbol>
<symbol id="icon-arrow-right" viewBox="0 0 68 32">
<path d="M3.325 16c0-0.982 0.796-1.778 1.778-1.778h56.889c0.982 0 1.778 0.796 1.778 1.778s-0.796 1.778-1.778 1.778h-56.889c-0.982 0-1.778-0.796-1.778-1.778z"></path>
<path d="M48.291 2.298c0.694-0.694 1.82-0.694 2.514 0l13.701 13.702-13.701 13.701c-0.694 0.694-1.82 0.694-2.514 0s-0.694-1.82 0-2.514l11.187-11.187-11.187-11.187c-0.694-0.694-0.694-1.82 0-2.514z"></path>
</symbol>
<symbol id="icon-checked" viewBox="0 0 32 32">
<path fill="#f3f3f3" style="fill: var(--color1, #f3f3f3)" d="M5.333 0.916h21.333c2.946 0 5.333 2.388 5.333 5.333v20.35c0 2.946-2.388 5.333-5.333 5.333h-21.333c-2.946 0-5.333-2.388-5.333-5.333v-20.35c0-2.946 2.388-5.333 5.333-5.333z"></path>
<path fill="#333" style="fill: var(--color2, #333)" d="M9.563 16.156c-0.498-0.464-1.307-0.464-1.805 0s-0.498 1.217 0 1.681l4.513 4.203c0.5 0.466 1.311 0.464 1.809-0.004l10.165-9.552c0.496-0.466 0.493-1.219-0.008-1.681s-1.309-0.459-1.805 0.007l-9.263 8.704-3.606-3.358z"></path>
</symbol>
<symbol id="icon-map-pin" viewBox="0 0 32 32">
<path fill="none" stroke="currentColor" style="stroke: var(--color1, currentColor)" stroke-linejoin="round" stroke-linecap="round" stroke-miterlimit="4" stroke-width="1.3333" d="M26.667 13.818c0 7.636-10.667 14.182-10.667 14.182s-10.667-6.545-10.667-14.182c0-5.422 4.776-9.818 10.667-9.818s10.667 4.396 10.667 9.818v0z"></path>
<path fill="none" stroke="currentColor" style="stroke: var(--color1, currentColor)" stroke-linejoin="round" stroke-linecap="round" stroke-miterlimit="4" stroke-width="1.3333" d="M16 18.667c2.209 0 4-1.791 4-4s-1.791-4-4-4-4 1.791-4 4c0 2.209 1.791 4 4 4z"></path>
</symbol>
<symbol id="icon-phone" viewBox="0 0 32 32">
<path fill="none" stroke="currentColor" style="stroke: var(--color1, currentColor)" stroke-linejoin="round" stroke-linecap="round" stroke-miterlimit="4" stroke-width="1.3333" d="M26.666 21.337v3.218c0.002 0.604-0.25 1.181-0.695 1.589s-1.042 0.61-1.643 0.556c-3.301-0.359-6.471-1.487-9.257-3.293-2.592-1.647-4.789-3.844-6.436-6.436-1.813-2.798-2.941-5.984-3.293-9.3-0.054-0.6 0.146-1.195 0.552-1.639s0.98-0.698 1.582-0.699h3.218c1.077-0.011 1.995 0.779 2.145 1.845 0.136 1.030 0.388 2.041 0.751 3.014 0.295 0.784 0.106 1.668-0.483 2.263l-1.362 1.362c1.527 2.685 3.75 4.909 6.436 6.436l1.362-1.362c0.596-0.589 1.479-0.777 2.263-0.483 0.973 0.363 1.984 0.615 3.014 0.751 1.079 0.152 1.872 1.088 1.845 2.177z"></path>
</symbol>
<symbol id="icon-mail" viewBox="0 0 32 32">
<path fill="none" stroke="currentColor" style="stroke: var(--color1, currentColor)" stroke-linejoin="round" stroke-linecap="round" stroke-miterlimit="4" stroke-width="1.3333" d="M6.4 6.667h19.2c1.32 0 2.4 1.050 2.4 2.333v14c0 1.283-1.080 2.333-2.4 2.333h-19.2c-1.32 0-2.4-1.050-2.4-2.333v-14c0-1.283 1.080-2.333 2.4-2.333z"></path>
<path fill="none" stroke="currentColor" style="stroke: var(--color1, currentColor)" stroke-linejoin="round" stroke-linecap="round" stroke-miterlimit="4" stroke-width="1.3333" d="M26.667 9.333l-10.667 8-10.667-8"></path>
</symbol>
<symbol id="icon-facebook" viewBox="0 0 32 32">
<path d="M21.329 5.313h2.921v-5.088c-0.504-0.069-2.237-0.225-4.256-0.225-4.212 0-7.097 2.649-7.097 7.519v4.481h-4.648v5.688h4.648v14.312h5.699v-14.311h4.46l0.708-5.688h-5.169v-3.919c0.001-1.644 0.444-2.769 2.735-2.769z"></path>
</symbol>
<symbol id="icon-twitter" viewBox="0 0 32 32">
<path d="M32 6.078c-1.19 0.522-2.458 0.868-3.78 1.036 1.36-0.812 2.398-2.088 2.886-3.626-1.268 0.756-2.668 1.29-4.16 1.588-1.204-1.282-2.92-2.076-4.792-2.076-3.632 0-6.556 2.948-6.556 6.562 0 0.52 0.044 1.020 0.152 1.496-5.454-0.266-10.28-2.88-13.522-6.862-0.566 0.982-0.898 2.106-0.898 3.316 0 2.272 1.17 4.286 2.914 5.452-1.054-0.020-2.088-0.326-2.964-0.808 0 0.020 0 0.046 0 0.072 0 3.188 2.274 5.836 5.256 6.446-0.534 0.146-1.116 0.216-1.72 0.216-0.42 0-0.844-0.024-1.242-0.112 0.85 2.598 3.262 4.508 6.13 4.57-2.232 1.746-5.066 2.798-8.134 2.798-0.538 0-1.054-0.024-1.57-0.090 2.906 1.874 6.35 2.944 10.064 2.944 12.072 0 18.672-10 18.672-18.668 0-0.29-0.010-0.57-0.024-0.848 1.302-0.924 2.396-2.078 3.288-3.406z"></path>
</symbol>
<symbol id="icon-linkedin" viewBox="0 0 32 32">
<path d="M31.992 32v-0.001h0.008v-11.736c0-5.741-1.236-10.164-7.948-10.164-3.227 0-5.392 1.771-6.276 3.449h-0.093v-2.913h-6.364v21.364h6.627v-10.579c0-2.785 0.528-5.479 3.977-5.479 3.399 0 3.449 3.179 3.449 5.657v10.401h6.62z"></path>
<path d="M0.528 10.636h6.635v21.364h-6.635v-21.364z"></path>
<path d="M3.843 0c-2.121 0-3.843 1.721-3.843 3.843s1.721 3.879 3.843 3.879c2.121 0 3.843-1.757 3.843-3.879-0.001-2.121-1.723-3.843-3.843-3.843v0z"></path>
</symbol>
<symbol id="icon-pinterest" viewBox="0 0 32 32">
<path d="M25.314 3.279c-2.203-2.115-5.251-3.279-8.583-3.279-5.090 0-8.221 2.087-9.951 3.837-2.132 2.157-3.355 5.021-3.355 7.858 0 3.562 1.49 6.296 3.985 7.313 0.168 0.069 0.336 0.103 0.501 0.103 0.526 0 0.943-0.344 1.088-0.897 0.084-0.317 0.279-1.099 0.364-1.438 0.182-0.67 0.035-0.993-0.361-1.46-0.722-0.854-1.058-1.864-1.058-3.178 0-3.903 2.906-8.051 8.293-8.051 4.274 0 6.929 2.429 6.929 6.34 0 2.468-0.532 4.753-1.497 6.435-0.671 1.169-1.851 2.562-3.662 2.562-0.783 0-1.487-0.322-1.93-0.883-0.419-0.53-0.558-1.215-0.389-1.929 0.191-0.806 0.45-1.648 0.702-2.461 0.459-1.485 0.892-2.888 0.892-4.008 0-1.915-1.177-3.201-2.929-3.201-2.226 0-3.97 2.261-3.97 5.147 0 1.415 0.376 2.474 0.546 2.881-0.28 1.188-1.947 8.252-2.263 9.584-0.183 0.778-1.284 6.919 0.539 7.409 2.048 0.55 3.878-5.431 4.065-6.107 0.151-0.55 0.679-2.628 1.003-3.906 0.989 0.952 2.58 1.596 4.129 1.596 2.92 0 5.545-1.314 7.394-3.699 1.792-2.314 2.78-5.539 2.78-9.080-0-2.769-1.189-5.498-3.262-7.488z"></path>
</symbol>
</defs>
</svg>
